<?xml version="1.0" standalone="no"?>
<!DOCTYPE svg PUBLIC "-//W3C//DTD SVG 20010904//EN"
 "http://www.w3.org/TR/2001/REC-SVG-20010904/DTD/svg10.dtd">
<svg version="1.0" xmlns="http://www.w3.org/2000/svg"
 width="500.000000pt" height="500.000000pt" viewBox="0 0 500.000000 500.000000"
 preserveAspectRatio="xMidYMid meet">
<metadata>
Created by potrace 1.14, written by Peter Selinger 2001-2017
</metadata>
<g transform="translate(0.000000,500.000000) scale(0.100000,-0.100000)"
fill="#000000" stroke="none">
<path d="M0 2510 l0 -2490 2490 0 2490 0 0 2490 0 2490 -2490 0 -2490 0 0
-2490z m4530 -50 l0 -2030 -2030 0 -2030 0 0 2030 0 2030 2030 0 2030 0 0
-2030z"/>
<path d="M600 2460 l0 -1900 1900 0 1900 0 0 1900 0 1900 -1900 0 -1900 0 0
-1900z m1310 780 c99 -13 209 -42 290 -77 l57 -25 -51 -129 c-59 -149 -40
-141 -186 -82 -91 36 -100 38 -210 38 -101 0 -121 -3 -163 -24 -155 -76 -239
-280 -224 -545 18 -314 139 -456 390 -456 85 0 237 27 330 59 l57 20 0 -139 0
-138 -62 -21 c-154 -50 -305 -66 -459 -50 -352 36 -546 252 -590 656 -30 285
43 550 200 715 99 106 211 165 360 192 95 18 154 19 261 6z m1455 -4 c281 -50
451 -212 528 -501 19 -69 22 -107 21 -280 0 -174 -3 -210 -22 -280 -72 -262
-228 -421 -477 -486 -113 -30 -336 -30 -450 0 -281 73 -448 273 -495 593 -25
168 -5 405 47 548 65 177 221 328 393 380 138 41 313 51 455 26z"/>
<path d="M3110 2969 c-146 -25 -241 -123 -285 -294 -36 -139 -28 -353 17 -490
55 -168 191 -254 384 -242 243 15 367 211 351 557 -14 297 -114 443 -320 470
-82 11 -74 11 -147 -1z"/>
</g>
</svg>
